<svg width="308" height="36" viewBox="0 0 308 36" fill="none" xmlns="http://www.w3.org/2000/svg">
<path d="M11.4932 0.887648H22.8897L33.444 34.7403H25.9212L17.1633 7.28765L8.40544 34.7403H0.938775L11.4932 0.887648ZM46.169 0.887648H62.2813C62.2813 0.887648 72.2743 0.887648 72.2743 10.7122C72.2743 13.9122 70.9269 15.7648 69.5796 16.9438C71.2638 18.235 73.0603 20.3684 73.0603 24.3543C73.0603 34.6841 62.8427 34.7403 62.8427 34.7403H46.169V28.1719H62.6743C62.6743 28.1719 66.4357 28.0034 66.4357 24.3543C66.4357 20.6491 62.6743 20.4806 62.6743 20.4806H46.169V13.9684H62.562C62.562 13.9684 65.6497 13.9122 65.6497 10.7122C65.6497 7.51221 62.562 7.45607 62.562 7.45607H46.169V0.887648ZM101.472 7.45607C101.472 7.45607 92.3208 8.01747 92.3208 17.7859C92.3208 27.6105 101.472 28.1719 101.472 28.1719H106.356C106.356 28.1719 115.507 27.6105 115.507 17.7859C115.507 8.01747 106.356 7.45607 106.356 7.45607H101.472ZM101.191 0.887648H106.637C106.637 0.887648 122.075 1.39291 122.075 17.7859C122.075 34.235 106.637 34.7403 106.637 34.7403H101.191C101.191 34.7403 85.7524 34.235 85.7524 17.7859C85.7524 1.39291 101.191 0.887648 101.191 0.887648ZM135.314 0.887648H141.826V21.9964C141.826 21.9964 141.601 28.9578 148.956 28.9578C156.31 28.9578 156.086 21.9964 156.086 21.9964V0.887648H162.654V23.5122C162.654 23.5122 162.373 35.5262 148.956 35.5262C135.538 35.5262 135.314 23.5122 135.314 23.5122V0.887648ZM192.079 34.7403H185.51V7.45607H174.787V0.887648H185.51H192.079H202.801V7.45607H192.079V34.7403ZM237.452 0.887648H243.964V21.9964C243.964 21.9964 243.74 28.9578 251.094 28.9578C258.448 28.9578 258.224 21.9964 258.224 21.9964V0.887648H264.792V23.5122C264.792 23.5122 264.512 35.5262 251.094 35.5262C237.676 35.5262 237.452 23.5122 237.452 23.5122V0.887648ZM288.451 0.887648H306.697V7.45607H289.405C289.405 7.45607 285.139 7.39993 285.139 10.9929C285.139 14.5859 289.405 14.5298 289.405 14.5298H298.051C298.051 14.5298 307.932 14.7543 307.932 24.635C307.932 34.5157 298.051 34.7403 298.051 34.7403H279.805V28.1719H297.097C297.097 28.1719 301.363 28.228 301.363 24.635C301.363 21.042 297.097 21.0982 297.097 21.0982H288.451C288.451 21.0982 278.57 20.8736 278.57 10.9929C278.57 1.11221 288.451 0.887648 288.451 0.887648Z" fill="white"/>
</svg>
