<svg width="615" height="71" viewBox="0 0 615 71" fill="none" xmlns="http://www.w3.org/2000/svg">
<path d="M21.6035 0.845609H44.3965L65.5053 68.5509H50.4596L32.9439 13.6456L15.4281 68.5509H0.494738L21.6035 0.845609ZM90.9553 0.845609H123.18C123.18 0.845609 143.166 0.845609 143.166 20.4947C143.166 26.8947 140.471 30.6 137.776 32.9579C141.145 35.5404 144.738 39.807 144.738 47.7789C144.738 68.4386 124.303 68.5509 124.303 68.5509H90.9553V55.414H123.966C123.966 55.414 131.489 55.0772 131.489 47.7789C131.489 40.3684 123.966 40.0316 123.966 40.0316H90.9553V27.007H123.741C123.741 27.007 129.917 26.8947 129.917 20.4947C129.917 14.0947 123.741 13.9825 123.741 13.9825H90.9553V0.845609ZM201.561 13.9825C201.561 13.9825 183.259 15.1053 183.259 34.6421C183.259 54.2912 201.561 55.414 201.561 55.414H211.329C211.329 55.414 229.631 54.2912 229.631 34.6421C229.631 15.1053 211.329 13.9825 211.329 13.9825H201.561ZM200.999 0.845609H211.89C211.89 0.845609 242.768 1.85614 242.768 34.6421C242.768 67.5404 211.89 68.5509 211.89 68.5509H200.999C200.999 68.5509 170.122 67.5404 170.122 34.6421C170.122 1.85614 200.999 0.845609 200.999 0.845609ZM269.245 0.845609H282.269V43.0632C282.269 43.0632 281.82 56.986 296.529 56.986C311.238 56.986 310.789 43.0632 310.789 43.0632V0.845609H323.925V46.0947C323.925 46.0947 323.364 70.1228 296.529 70.1228C269.694 70.1228 269.245 46.0947 269.245 46.0947V0.845609ZM382.775 68.5509H369.638V13.9825H348.192V0.845609H369.638H382.775H404.22V13.9825H382.775V68.5509ZM473.521 0.845609H486.546V43.0632C486.546 43.0632 486.096 56.986 500.805 56.986C515.514 56.986 515.065 43.0632 515.065 43.0632V0.845609H528.202V46.0947C528.202 46.0947 527.64 70.1228 500.805 70.1228C473.97 70.1228 473.521 46.0947 473.521 46.0947V0.845609ZM575.519 0.845609H612.01V13.9825H577.428C577.428 13.9825 568.895 13.8702 568.895 21.0561C568.895 28.2421 577.428 28.1298 577.428 28.1298H594.719C594.719 28.1298 614.481 28.5789 614.481 48.3403C614.481 68.1018 594.719 68.5509 594.719 68.5509H558.228V55.414H592.81C592.81 55.414 601.344 55.5263 601.344 48.3403C601.344 41.1544 592.81 41.2667 592.81 41.2667H575.519C575.519 41.2667 555.758 40.8175 555.758 21.0561C555.758 1.29473 575.519 0.845609 575.519 0.845609Z" fill="black"/>
</svg>
