<svg width="30" height="26" viewBox="0 0 30 26" fill="none" xmlns="http://www.w3.org/2000/svg">
<path fill-rule="evenodd" clip-rule="evenodd" d="M0 9.28571C0 8.79317 0.195663 8.3208 0.543944 7.97252C0.892226 7.62423 1.3646 7.42857 1.85714 7.42857H21.0006C21.4931 7.42857 21.9655 7.62423 22.3138 7.97252C22.6621 8.3208 22.8577 8.79317 22.8577 9.28571C22.8577 9.77826 22.6621 10.2506 22.3138 10.5989C21.9655 10.9472 21.4931 11.1429 21.0006 11.1429H1.85714C1.3646 11.1429 0.892226 10.9472 0.543944 10.5989C0.195663 10.2506 0 9.77826 0 9.28571ZM0 1.85714C0 1.3646 0.195663 0.892226 0.543944 0.543944C0.892226 0.195663 1.3646 0 1.85714 0H27.8571C28.3497 0 28.8221 0.195663 29.1703 0.543944C29.5186 0.892226 29.7143 1.3646 29.7143 1.85714C29.7143 2.34969 29.5186 2.82206 29.1703 3.17034C28.8221 3.51862 28.3497 3.71429 27.8571 3.71429H1.85714C1.3646 3.71429 0.892226 3.51862 0.543944 3.17034C0.195663 2.82206 0 2.34969 0 1.85714ZM0 16.7143C0 16.2217 0.195663 15.7494 0.543944 15.4011C0.892226 15.0528 1.3646 14.8571 1.85714 14.8571H27.8571C28.3497 14.8571 28.8221 15.0528 29.1703 15.4011C29.5186 15.7494 29.7143 16.2217 29.7143 16.7143C29.7143 17.2068 29.5186 17.6792 29.1703 18.0275C28.8221 18.3758 28.3497 18.5714 27.8571 18.5714H1.85714C1.3646 18.5714 0.892226 18.3758 0.543944 18.0275C0.195663 17.6792 0 17.2068 0 16.7143ZM0 24.1429C0 23.6503 0.195663 23.1779 0.543944 22.8297C0.892226 22.4814 1.3646 22.2857 1.85714 22.2857H21.0006C21.4931 22.2857 21.9655 22.4814 22.3138 22.8297C22.6621 23.1779 22.8577 23.6503 22.8577 24.1429C22.8577 24.6354 22.6621 25.1078 22.3138 25.4561C21.9655 25.8043 21.4931 26 21.0006 26H1.85714C1.3646 26 0.892226 25.8043 0.543944 25.4561C0.195663 25.1078 0 24.6354 0 24.1429Z" fill="white"/>
</svg>
