<svg width="389" height="47" viewBox="0 0 389 47" fill="none" xmlns="http://www.w3.org/2000/svg">
<g filter="url(#filter0_d_778_143)">
<path d="M21.0125 0.352433H33.2912V7.00341H21.2968C21.2968 7.00341 12.0309 7.57187 12.0309 17.4631C12.0309 27.4111 21.2968 27.9796 21.2968 27.9796H33.2912V34.6305H21.0125C21.0125 34.6305 5.37989 34.1189 5.37989 17.4631C5.37989 0.864047 21.0125 0.352433 21.0125 0.352433ZM58.0468 7.00341C58.0468 7.00341 48.7809 7.57187 48.7809 17.4631C48.7809 27.4111 58.0468 27.9796 58.0468 27.9796H62.9923C62.9923 27.9796 72.2582 27.4111 72.2582 17.4631C72.2582 7.57187 62.9923 7.00341 62.9923 7.00341H58.0468ZM57.7625 0.352433H63.2766C63.2766 0.352433 78.9092 0.864047 78.9092 17.4631C78.9092 34.1189 63.2766 34.6305 63.2766 34.6305H57.7625C57.7625 34.6305 42.1299 34.1189 42.1299 17.4631C42.1299 0.864047 57.7625 0.352433 57.7625 0.352433ZM91.759 0.352433H100.456L113.702 24.6256V0.352433H120.353V34.6305H111.541L98.3532 10.1299V34.6305H91.759V0.352433ZM150.736 34.6305H144.085V7.00341H133.228V0.352433H144.085H150.736H161.594V7.00341H150.736V34.6305ZM177.778 0.352433H189.318L200.005 34.6305H192.387L183.519 6.83287L174.652 34.6305H167.091L177.778 0.352433ZM224.525 0.352433H236.804V7.00341H224.81C224.81 7.00341 215.544 7.57187 215.544 17.4631C215.544 27.4111 224.81 27.9796 224.81 27.9796H236.804V34.6305H224.525C224.525 34.6305 208.893 34.1189 208.893 17.4631C208.893 0.864047 224.525 0.352433 224.525 0.352433ZM265.982 34.6305H259.331V7.00341H248.474V0.352433H259.331H265.982H276.84V7.00341H265.982V34.6305ZM311.926 0.352433H318.52V21.7265C318.52 21.7265 318.293 28.7754 325.74 28.7754C333.186 28.7754 332.959 21.7265 332.959 21.7265V0.352433H339.61V23.2613C339.61 23.2613 339.326 35.4264 325.74 35.4264C312.153 35.4264 311.926 23.2613 311.926 23.2613V0.352433ZM363.566 0.352433H382.041V7.00341H364.532C364.532 7.00341 360.212 6.94656 360.212 10.5847C360.212 14.2228 364.532 14.166 364.532 14.166H373.287C373.287 14.166 383.292 14.3934 383.292 24.3983C383.292 34.4031 373.287 34.6305 373.287 34.6305H354.812V27.9796H372.32C372.32 27.9796 376.641 28.0364 376.641 24.3983C376.641 20.7601 372.32 20.817 372.32 20.817H363.566C363.566 20.817 353.561 20.5896 353.561 10.5847C353.561 0.579818 363.566 0.352433 363.566 0.352433Z" fill="white"/>
</g>
<defs>
<filter id="filter0_d_778_143" x="0.0496011" y="0.352539" width="388.573" height="45.7323" filterUnits="userSpaceOnUse" color-interpolation-filters="sRGB">
<feFlood flood-opacity="0" result="BackgroundImageFix"/>
<feColorMatrix in="SourceAlpha" type="matrix" values="0 0 0 0 0 0 0 0 0 0 0 0 0 0 0 0 0 0 127 0" result="hardAlpha"/>
<feOffset dy="5.32931"/>
<feGaussianBlur stdDeviation="2.66465"/>
<feComposite in2="hardAlpha" operator="out"/>
<feColorMatrix type="matrix" values="0 0 0 0 0 0 0 0 0 0 0 0 0 0 0 0 0 0 0.65 0"/>
<feBlend mode="normal" in2="BackgroundImageFix" result="effect1_dropShadow_778_143"/>
<feBlend mode="normal" in="SourceGraphic" in2="effect1_dropShadow_778_143" result="shape"/>
</filter>
</defs>
</svg>
