<svg width="689" height="25" viewBox="0 0 689 25" fill="none" xmlns="http://www.w3.org/2000/svg">
<path d="M10.84 0.719998C10.84 0.719998 21.84 1.08 21.84 12.76C21.84 24.48 10.84 24.84 10.84 24.84H0.52V20.16H10.64C10.64 20.16 17.12 19.76 17.12 12.76C17.12 5.8 10.64 5.4 10.64 5.4H0.52V0.719998H10.84ZM37.5791 0.719998H45.6991L53.2191 24.84H47.8591L41.6191 5.28L35.3791 24.84H30.0591L37.5791 0.719998ZM84.0856 24.84H78.9256L74.1256 15.12H68.9256V24.84H64.2856V11.64V10.44H75.9656C75.9656 10.44 79.0056 10.48 79.0056 7.92C79.0056 5.36 75.9656 5.4 75.9656 5.4H64.2856V0.719998H76.6456C76.6456 0.719998 83.6856 0.879998 83.6856 7.92C83.6856 12.2 81.0856 13.92 79.0456 14.64L84.0856 24.84ZM96.3638 10.44H115.124V15.12H96.3638V10.44ZM96.3638 20.16H115.124V24.84H96.3638V20.16ZM96.3638 0.719998H115.124V5.4H96.3638V0.719998ZM145.403 20.16H149.923V24.84H145.403V20.16ZM191.285 0.719998C191.285 0.719998 202.285 1.08 202.285 12.76C202.285 24.48 191.285 24.84 191.285 24.84H180.965V20.16H191.085C191.085 20.16 197.565 19.76 197.565 12.76C197.565 5.8 191.085 5.4 191.085 5.4H180.965V0.719998H191.285ZM213.317 10.44H232.077V15.12H213.317V10.44ZM213.317 20.16H232.077V24.84H213.317V20.16ZM213.317 0.719998H232.077V5.4H213.317V0.719998ZM250.649 24.84L243.129 0.719998H248.449L254.689 20.28L260.929 0.719998H266.289L258.769 24.84H250.649ZM277.356 10.44H296.116V15.12H277.356V10.44ZM277.356 20.16H296.116V24.84H277.356V20.16ZM277.356 0.719998H296.116V5.4H277.356V0.719998ZM309.161 24.84V20.16V0.719998H313.801V20.16H327.921V24.84H313.801H309.161ZM348.572 5.4C348.572 5.4 342.052 5.8 342.052 12.76C342.052 19.76 348.572 20.16 348.572 20.16H352.052C352.052 20.16 358.572 19.76 358.572 12.76C358.572 5.8 352.052 5.4 352.052 5.4H348.572ZM348.372 0.719998H352.252C352.252 0.719998 363.252 1.08 363.252 12.76C363.252 24.48 352.252 24.84 352.252 24.84H348.372C348.372 24.84 337.372 24.48 337.372 12.76C337.372 1.08 348.372 0.719998 348.372 0.719998ZM374.293 10.44H385.973C385.973 10.44 389.013 10.48 389.013 7.92C389.013 5.36 385.973 5.4 385.973 5.4H374.293V0.719998H386.653C386.653 0.719998 393.693 0.879998 393.693 7.92C393.693 14.96 386.653 15.12 386.653 15.12H378.933V24.84H374.293V10.44ZM422.747 20.16H427.267V24.84H422.747V20.16ZM468.629 0.719998C468.629 0.719998 479.629 1.08 479.629 12.76C479.629 24.48 468.629 24.84 468.629 24.84H458.309V20.16H468.429C468.429 20.16 474.909 19.76 474.909 12.76C474.909 5.8 468.429 5.4 468.429 5.4H458.309V0.719998H468.629ZM500.65 5.4C500.65 5.4 494.13 5.8 494.13 12.76C494.13 19.76 500.65 20.16 500.65 20.16H504.13C504.13 20.16 510.65 19.76 510.65 12.76C510.65 5.8 504.13 5.4 504.13 5.4H500.65ZM500.45 0.719998H504.33C504.33 0.719998 515.33 1.08 515.33 12.76C515.33 24.48 504.33 24.84 504.33 24.84H500.45C500.45 24.84 489.45 24.48 489.45 12.76C489.45 1.08 500.45 0.719998 500.45 0.719998ZM526.372 0.719998H532.212L537.612 13.68L543.012 0.719998H548.852V24.84H544.212V9.12L539.572 18.96H535.652L531.012 9.12V24.84H526.372V0.719998ZM566.527 24.84H561.887V0.719998H566.527V24.84ZM579.551 0.719998H585.671L594.991 17.8V0.719998H599.671V24.84H593.471L584.191 7.6V24.84H579.551V0.719998ZM618.251 0.719998H626.371L633.891 24.84H628.531L622.291 5.28L616.051 24.84H610.731L618.251 0.719998ZM652.082 24.84H647.402V5.4H639.762V0.719998H647.402H652.082H659.722V5.4H652.082V24.84ZM669.965 10.44H688.725V15.12H669.965V10.44ZM669.965 20.16H688.725V24.84H669.965V20.16ZM669.965 0.719998H688.725V5.4H669.965V0.719998Z" fill="white"/>
</svg>
