<svg width="456" height="66" viewBox="0 0 456 66" fill="none" xmlns="http://www.w3.org/2000/svg">
<path d="M0.866006 26.7882H51.3889V39.392H0.866006V26.7882ZM0.866006 52.9653H51.3889V65.5691H0.866006V52.9653ZM0.866006 0.611119H51.3889V13.2149H0.866006V0.611119ZM96.0206 65.5691L75.7683 0.611119H90.0957L106.901 53.2885L123.706 0.611119H138.141L117.889 65.5691H96.0206ZM162.558 26.7882H213.081V39.392H162.558V26.7882ZM162.558 52.9653H213.081V65.5691H162.558V52.9653ZM162.558 0.611119H213.081V13.2149H162.558V0.611119ZM242.826 0.611119H259.308L284.407 46.6096V0.611119H297.011V65.5691H280.314L255.322 19.1398V65.5691H242.826V0.611119ZM354.589 65.5691H341.985V13.2149H321.41V0.611119H341.985H354.589H375.165V13.2149H354.589V65.5691ZM418.533 0.611119H453.544V13.2149H420.364C420.364 13.2149 412.177 13.1072 412.177 20.0016C412.177 26.8959 420.364 26.7882 420.364 26.7882H436.954C436.954 26.7882 455.914 27.2191 455.914 46.1787C455.914 65.1382 436.954 65.5691 436.954 65.5691H401.943V52.9653H435.123C435.123 52.9653 443.31 53.073 443.31 46.1787C443.31 39.2843 435.123 39.392 435.123 39.392H418.533C418.533 39.392 399.574 38.9611 399.574 20.0016C399.574 1.04202 418.533 0.611119 418.533 0.611119Z" fill="black"/>
</svg>
