<svg width="441" height="153" viewBox="0 0 441 153" fill="none" xmlns="http://www.w3.org/2000/svg">
<rect width="51.451" height="152.056" fill="#080AA4"/>
<path d="M98.7703 96.028H91.9494H98.7703ZM91.9494 74.8596H119.527V81.7393H98.7703V96.028H91.9494V81.7393V76.3884V74.8596ZM91.9494 60.5709H119.527V67.4506H91.9494V60.5709ZM134.615 74.8596H162.192V81.7393H134.615V74.8596ZM134.615 89.1482H162.192V96.028H134.615V89.1482ZM134.615 60.5709H162.192V67.4506H134.615V60.5709ZM186.554 60.5709H198.491L209.546 96.028H201.666L192.493 67.2742L183.32 96.028H175.5L186.554 60.5709ZM233.347 96.028H226.467V67.4506H215.236V60.5709H226.467H233.347H244.578V67.4506H233.347V96.028ZM257.328 60.5709H264.148V82.6801C264.148 82.6801 263.913 89.9715 271.616 89.9715C279.319 89.9715 279.084 82.6801 279.084 82.6801V60.5709H285.964V84.2678C285.964 84.2678 285.67 96.8512 271.616 96.8512C257.563 96.8512 257.328 84.2678 257.328 84.2678V60.5709ZM330.133 96.028H322.548L315.491 81.7393H307.847V96.028H301.026V76.6236V74.8596H318.196C318.196 74.8596 322.665 74.9184 322.665 71.1551C322.665 67.3918 318.196 67.4506 318.196 67.4506H301.026V60.5709H319.196C319.196 60.5709 329.545 60.8061 329.545 71.1551C329.545 77.4468 325.723 79.9753 322.724 81.0337L330.133 96.028ZM352.063 96.028H345.242V60.5709H352.063V96.028ZM368.269 60.5709H377.265L390.966 85.679V60.5709H397.846V96.028H388.731L375.09 70.6847V96.028H368.269V60.5709ZM427.334 60.5709H440.035V67.4506H427.628C427.628 67.4506 418.043 68.0386 418.043 78.27C418.043 88.5602 427.628 89.1482 427.628 89.1482H433.155V76.1532H440.035V89.1482V96.028H433.155H427.334C427.334 96.028 411.164 95.4988 411.164 78.27C411.164 61.1001 427.334 60.5709 427.334 60.5709Z" fill="white"/>
</svg>
