<svg width="350" height="37" viewBox="0 0 350 37" fill="none" xmlns="http://www.w3.org/2000/svg">
<path d="M7.77029 36.028H0.949364H7.77029ZM0.949364 14.8596H28.5271V21.7393H7.77029V36.028H0.949364V21.7393V16.3884V14.8596ZM0.949364 0.5709H28.5271V7.45063H0.949364V0.5709ZM43.6146 14.8596H71.1924V21.7393H43.6146V14.8596ZM43.6146 29.1482H71.1924V36.028H43.6146V29.1482ZM43.6146 0.5709H71.1924V7.45063H43.6146V0.5709ZM95.5544 0.5709H107.491L118.546 36.028H110.666L101.493 7.27423L92.3203 36.028H84.4998L95.5544 0.5709ZM142.347 36.028H135.467V7.45063H124.236V0.5709H135.467H142.347H153.578V7.45063H142.347V36.028ZM166.328 0.5709H173.148V22.6801C173.148 22.6801 172.913 29.9715 180.616 29.9715C188.319 29.9715 188.084 22.6801 188.084 22.6801V0.5709H194.964V24.2678C194.964 24.2678 194.67 36.8512 180.616 36.8512C166.563 36.8512 166.328 24.2678 166.328 24.2678V0.5709ZM239.133 36.028H231.548L224.491 21.7393H216.847V36.028H210.026V16.6236V14.8596H227.196C227.196 14.8596 231.665 14.9184 231.665 11.1551C231.665 7.39183 227.196 7.45063 227.196 7.45063H210.026V0.5709H228.196C228.196 0.5709 238.545 0.806105 238.545 11.1551C238.545 17.4468 234.723 19.9753 231.724 21.0337L239.133 36.028ZM261.063 36.028H254.242V0.5709H261.063V36.028ZM277.269 0.5709H286.265L299.966 25.679V0.5709H306.846V36.028H297.731L284.09 10.6847V36.028H277.269V0.5709ZM336.334 0.5709H349.035V7.45063H336.628C336.628 7.45063 327.043 8.03864 327.043 18.27C327.043 28.5602 336.628 29.1482 336.628 29.1482H342.155V16.1532H349.035V29.1482V36.028H342.155H336.334C336.334 36.028 320.164 35.4988 320.164 18.27C320.164 1.10011 336.334 0.5709 336.334 0.5709Z" fill="white"/>
</svg>
