<svg width="713" height="27" viewBox="0 0 713 27" fill="none" xmlns="http://www.w3.org/2000/svg">
<path d="M0.0960001 26V1.232H13.344V3.788H2.976V12.752H12.228V15.308H2.976V26H0.0960001ZM25.739 26.288C22.907 26.288 20.891 25.976 19.691 25.352C18.491 24.704 17.723 23.564 17.387 21.932C17.075 20.3 16.919 17.528 16.919 13.616C16.919 9.704 17.075 6.932 17.387 5.3C17.723 3.668 18.491 2.54 19.691 1.916C20.891 1.268 22.907 0.943999 25.739 0.943999C28.571 0.943999 30.575 1.268 31.751 1.916C32.951 2.54 33.707 3.668 34.019 5.3C34.355 6.932 34.523 9.704 34.523 13.616C34.523 17.528 34.355 20.3 34.019 21.932C33.707 23.564 32.951 24.704 31.751 25.352C30.575 25.976 28.571 26.288 25.739 26.288ZM25.739 23.732C27.755 23.732 29.123 23.564 29.843 23.228C30.563 22.892 31.043 22.076 31.283 20.78C31.523 19.484 31.643 17.096 31.643 13.616C31.643 10.136 31.523 7.748 31.283 6.452C31.043 5.156 30.563 4.34 29.843 4.004C29.123 3.668 27.755 3.5 25.739 3.5C23.723 3.5 22.343 3.668 21.599 4.004C20.879 4.34 20.399 5.156 20.159 6.452C19.919 7.748 19.799 10.136 19.799 13.616C19.799 17.096 19.919 19.484 20.159 20.78C20.399 22.076 20.879 22.892 21.599 23.228C22.343 23.564 23.723 23.732 25.739 23.732ZM53.2103 26L49.7543 16.136H49.1423H42.8783V26H39.9983V1.232H49.5383C51.3863 1.232 52.7663 1.544 53.6783 2.168C54.6143 2.792 55.2143 3.62 55.4783 4.652C55.7663 5.684 55.9103 7.028 55.9103 8.684C55.9103 10.484 55.6943 11.972 55.2623 13.148C54.8303 14.324 53.9183 15.152 52.5263 15.632L56.3063 26H53.2103ZM48.5663 13.616C49.8863 13.616 50.8583 13.448 51.4823 13.112C52.1303 12.752 52.5503 12.236 52.7423 11.564C52.9343 10.892 53.0303 9.932 53.0303 8.684C53.0303 7.412 52.9463 6.452 52.7783 5.804C52.6103 5.156 52.2143 4.664 51.5903 4.328C50.9903 3.968 50.0543 3.788 48.7823 3.788H42.8783V13.616H48.5663ZM77.4679 1.232V15.2C77.4679 18.416 77.2999 20.768 76.9639 22.256C76.6279 23.72 75.8959 24.764 74.7679 25.388C73.6399 25.988 71.8039 26.288 69.2599 26.288C66.7399 26.288 64.9039 25.988 63.7519 25.388C62.6239 24.764 61.8799 23.72 61.5199 22.256C61.1839 20.768 61.0159 18.416 61.0159 15.2V1.232H63.8959V16.46C63.8959 18.692 63.9919 20.276 64.1839 21.212C64.3999 22.148 64.8679 22.808 65.5879 23.192C66.3079 23.552 67.5319 23.732 69.2599 23.732C70.9879 23.732 72.2119 23.552 72.9319 23.192C73.6519 22.808 74.1079 22.148 74.2999 21.212C74.4919 20.276 74.5879 18.692 74.5879 16.46V1.232H77.4679ZM103.071 26V5.948H102.927L95.8355 26H93.3875L86.3315 5.948H86.1875V26H83.4515V1.232H87.5555L94.5755 21.248H94.7915L101.847 1.232H105.879V26H103.071ZM127.798 26.288C124.966 26.288 122.95 25.976 121.75 25.352C120.55 24.704 119.782 23.564 119.446 21.932C119.134 20.3 118.978 17.528 118.978 13.616C118.978 9.704 119.134 6.932 119.446 5.3C119.782 3.668 120.55 2.54 121.75 1.916C122.95 1.268 124.966 0.943999 127.798 0.943999C130.63 0.943999 132.634 1.268 133.81 1.916C135.01 2.54 135.766 3.668 136.078 5.3C136.414 6.932 136.582 9.704 136.582 13.616C136.582 17.528 136.414 20.3 136.078 21.932C135.766 23.564 135.01 24.704 133.81 25.352C132.634 25.976 130.63 26.288 127.798 26.288ZM127.798 23.732C129.814 23.732 131.182 23.564 131.902 23.228C132.622 22.892 133.102 22.076 133.342 20.78C133.582 19.484 133.702 17.096 133.702 13.616C133.702 10.136 133.582 7.748 133.342 6.452C133.102 5.156 132.622 4.34 131.902 4.004C131.182 3.668 129.814 3.5 127.798 3.5C125.782 3.5 124.402 3.668 123.658 4.004C122.938 4.34 122.458 5.156 122.218 6.452C121.978 7.748 121.858 10.136 121.858 13.616C121.858 17.096 121.978 19.484 122.218 20.78C122.458 22.076 122.938 22.892 123.658 23.228C124.402 23.564 125.782 23.732 127.798 23.732ZM142.057 26V1.232H155.305V3.788H144.937V12.752H154.189V15.308H144.937V26H142.057ZM180.153 25.82C179.505 25.964 178.713 26.072 177.777 26.144C176.865 26.24 175.989 26.288 175.149 26.288C172.557 26.288 170.673 25.976 169.497 25.352C168.321 24.704 167.529 23.528 167.121 21.824C166.713 20.096 166.509 17.36 166.509 13.616C166.509 9.896 166.713 7.184 167.121 5.48C167.529 3.752 168.321 2.564 169.497 1.916C170.697 1.268 172.581 0.943999 175.149 0.943999C175.989 0.943999 176.865 0.991999 177.777 1.088C178.713 1.184 179.469 1.304 180.045 1.448V3.824C178.653 3.608 177.249 3.5 175.833 3.5C173.745 3.5 172.281 3.704 171.441 4.112C170.601 4.52 170.049 5.384 169.785 6.704C169.521 8.024 169.389 10.328 169.389 13.616C169.389 16.904 169.521 19.208 169.785 20.528C170.049 21.848 170.601 22.712 171.441 23.12C172.281 23.528 173.745 23.732 175.833 23.732C177.537 23.732 178.977 23.624 180.153 23.408V25.82ZM193.012 26.288C190.18 26.288 188.164 25.976 186.964 25.352C185.764 24.704 184.996 23.564 184.66 21.932C184.348 20.3 184.192 17.528 184.192 13.616C184.192 9.704 184.348 6.932 184.66 5.3C184.996 3.668 185.764 2.54 186.964 1.916C188.164 1.268 190.18 0.943999 193.012 0.943999C195.844 0.943999 197.848 1.268 199.024 1.916C200.224 2.54 200.98 3.668 201.292 5.3C201.628 6.932 201.796 9.704 201.796 13.616C201.796 17.528 201.628 20.3 201.292 21.932C200.98 23.564 200.224 24.704 199.024 25.352C197.848 25.976 195.844 26.288 193.012 26.288ZM193.012 23.732C195.028 23.732 196.396 23.564 197.116 23.228C197.836 22.892 198.316 22.076 198.556 20.78C198.796 19.484 198.916 17.096 198.916 13.616C198.916 10.136 198.796 7.748 198.556 6.452C198.316 5.156 197.836 4.34 197.116 4.004C196.396 3.668 195.028 3.5 193.012 3.5C190.996 3.5 189.616 3.668 188.872 4.004C188.152 4.34 187.672 5.156 187.432 6.452C187.192 7.748 187.072 10.136 187.072 13.616C187.072 17.096 187.192 19.484 187.432 20.78C187.672 22.076 188.152 22.892 188.872 23.228C189.616 23.564 190.996 23.732 193.012 23.732ZM226.892 26V5.948H226.748L219.656 26H217.208L210.152 5.948H210.008V26H207.272V1.232H211.376L218.396 21.248H218.612L225.668 1.232H229.7V26H226.892ZM235.889 1.232H245.033C246.905 1.232 248.309 1.556 249.245 2.204C250.181 2.852 250.793 3.728 251.081 4.832C251.369 5.912 251.513 7.316 251.513 9.044C251.513 10.748 251.369 12.14 251.081 13.22C250.793 14.3 250.169 15.176 249.209 15.848C248.273 16.52 246.869 16.856 244.997 16.856H238.769V26H235.889V1.232ZM244.241 14.336C245.561 14.336 246.533 14.156 247.157 13.796C247.781 13.436 248.177 12.896 248.345 12.176C248.537 11.456 248.633 10.412 248.633 9.044C248.633 7.652 248.549 6.608 248.381 5.912C248.213 5.216 247.817 4.688 247.193 4.328C246.569 3.968 245.597 3.788 244.277 3.788H238.769V14.336H244.241ZM272.409 1.232V15.2C272.409 18.416 272.241 20.768 271.905 22.256C271.569 23.72 270.837 24.764 269.709 25.388C268.581 25.988 266.745 26.288 264.201 26.288C261.681 26.288 259.845 25.988 258.693 25.388C257.565 24.764 256.821 23.72 256.461 22.256C256.125 20.768 255.957 18.416 255.957 15.2V1.232H258.837V16.46C258.837 18.692 258.933 20.276 259.125 21.212C259.341 22.148 259.809 22.808 260.529 23.192C261.249 23.552 262.473 23.732 264.201 23.732C265.929 23.732 267.153 23.552 267.873 23.192C268.593 22.808 269.049 22.148 269.241 21.212C269.433 20.276 269.529 18.692 269.529 16.46V1.232H272.409ZM282.857 26V3.86H276.161V1.232H292.433V3.86H285.737V26H282.857ZM296.428 26V1.232H310.324V3.788H299.308V12.212H308.884V14.768H299.308V23.444H310.324V26H296.428ZM328.308 26L324.852 16.136H324.24H317.976V26H315.096V1.232H324.636C326.484 1.232 327.864 1.544 328.776 2.168C329.712 2.792 330.312 3.62 330.576 4.652C330.864 5.684 331.008 7.028 331.008 8.684C331.008 10.484 330.792 11.972 330.36 13.148C329.928 14.324 329.016 15.152 327.624 15.632L331.404 26H328.308ZM323.664 13.616C324.984 13.616 325.956 13.448 326.58 13.112C327.228 12.752 327.648 12.236 327.84 11.564C328.032 10.892 328.128 9.932 328.128 8.684C328.128 7.412 328.044 6.452 327.876 5.804C327.708 5.156 327.312 4.664 326.688 4.328C326.088 3.968 325.152 3.788 323.88 3.788H317.976V13.616H323.664ZM343.994 26V1.232H357.89V3.788H346.874V12.212H356.45V14.768H346.874V23.444H357.89V26H343.994ZM376.522 26L365.578 6.992H365.434V26H362.662V1.232H365.614L376.378 19.88H376.522V1.232H379.33V26H376.522ZM393.255 15.2V12.716H400.779V25.604C399.771 25.796 398.619 25.952 397.323 26.072C396.027 26.216 394.875 26.288 393.867 26.288C391.227 26.288 389.283 25.976 388.035 25.352C386.787 24.728 385.923 23.54 385.443 21.788C384.987 20.036 384.759 17.312 384.759 13.616C384.759 9.968 384.999 7.268 385.479 5.516C385.959 3.764 386.823 2.564 388.071 1.916C389.343 1.268 391.299 0.943999 393.939 0.943999C395.067 0.943999 396.267 1.016 397.539 1.16C398.835 1.304 399.891 1.472 400.707 1.664V4.04C399.843 3.896 398.871 3.776 397.791 3.68C396.735 3.56 395.883 3.5 395.235 3.5C392.811 3.5 391.119 3.668 390.159 4.004C389.223 4.34 388.563 5.192 388.179 6.56C387.819 7.904 387.639 10.256 387.639 13.616C387.639 16.736 387.771 18.98 388.035 20.348C388.323 21.692 388.887 22.604 389.727 23.084C390.567 23.564 391.959 23.804 393.903 23.804C394.503 23.804 395.187 23.78 395.955 23.732C396.747 23.66 397.419 23.576 397.971 23.48V15.2H393.255ZM406.573 26V1.232H409.453V26H406.573ZM429.538 26L418.594 6.992H418.45V26H415.678V1.232H418.63L429.394 19.88H429.538V1.232H432.346V26H429.538ZM438.494 26V1.232H452.39V3.788H441.374V12.212H450.95V14.768H441.374V23.444H452.39V26H438.494ZM457.162 26V1.232H471.058V3.788H460.042V12.212H469.618V14.768H460.042V23.444H471.058V26H457.162ZM489.042 26L485.586 16.136H484.974H478.71V26H475.83V1.232H485.37C487.218 1.232 488.598 1.544 489.51 2.168C490.446 2.792 491.046 3.62 491.31 4.652C491.598 5.684 491.742 7.028 491.742 8.684C491.742 10.484 491.526 11.972 491.094 13.148C490.662 14.324 489.75 15.152 488.358 15.632L492.138 26H489.042ZM484.398 13.616C485.718 13.616 486.69 13.448 487.314 13.112C487.962 12.752 488.382 12.236 488.574 11.564C488.766 10.892 488.862 9.932 488.862 8.684C488.862 7.412 488.778 6.452 488.61 5.804C488.442 5.156 488.046 4.664 487.422 4.328C486.822 3.968 485.886 3.788 484.614 3.788H478.71V13.616H484.398ZM497.136 26V1.232H500.016V26H497.136ZM520.101 26L509.157 6.992H509.013V26H506.241V1.232H509.193L519.957 19.88H520.101V1.232H522.909V26H520.101ZM536.833 15.2V12.716H544.357V25.604C543.349 25.796 542.197 25.952 540.901 26.072C539.605 26.216 538.453 26.288 537.445 26.288C534.805 26.288 532.861 25.976 531.613 25.352C530.365 24.728 529.501 23.54 529.021 21.788C528.565 20.036 528.337 17.312 528.337 13.616C528.337 9.968 528.577 7.268 529.057 5.516C529.537 3.764 530.401 2.564 531.649 1.916C532.921 1.268 534.877 0.943999 537.517 0.943999C538.645 0.943999 539.845 1.016 541.117 1.16C542.413 1.304 543.469 1.472 544.285 1.664V4.04C543.421 3.896 542.449 3.776 541.369 3.68C540.313 3.56 539.461 3.5 538.813 3.5C536.389 3.5 534.697 3.668 533.737 4.004C532.801 4.34 532.141 5.192 531.757 6.56C531.397 7.904 531.217 10.256 531.217 13.616C531.217 16.736 531.349 18.98 531.613 20.348C531.901 21.692 532.465 22.604 533.305 23.084C534.145 23.564 535.537 23.804 537.481 23.804C538.081 23.804 538.765 23.78 539.533 23.732C540.325 23.66 540.997 23.576 541.549 23.48V15.2H536.833ZM564.692 26.288C563.444 26.288 562.136 26.24 560.768 26.144C559.424 26.072 558.248 25.952 557.24 25.784V23.336C559.784 23.6 561.98 23.732 563.828 23.732C564.98 23.732 565.88 23.672 566.528 23.552C567.2 23.432 567.752 23.216 568.184 22.904C568.616 22.616 568.892 22.184 569.012 21.608C569.132 21.008 569.192 20.204 569.192 19.196C569.192 17.924 569.132 17.036 569.012 16.532C568.892 16.028 568.616 15.668 568.184 15.452C567.776 15.236 567.032 15.056 565.952 14.912L560.876 14.264C559.652 14.096 558.728 13.748 558.104 13.22C557.504 12.692 557.108 12.008 556.916 11.168C556.724 10.328 556.628 9.224 556.628 7.856C556.628 6.008 556.916 4.592 557.492 3.608C558.068 2.6 558.908 1.904 560.012 1.52C561.14 1.136 562.616 0.943999 564.44 0.943999C565.688 0.943999 566.9 1.004 568.076 1.124C569.276 1.22 570.26 1.352 571.028 1.52V3.896C569.252 3.632 567.272 3.5 565.088 3.5C563.864 3.5 562.892 3.572 562.172 3.716C561.452 3.86 560.9 4.088 560.516 4.4C560.108 4.712 559.832 5.132 559.688 5.66C559.568 6.164 559.508 6.872 559.508 7.784C559.508 8.84 559.568 9.608 559.688 10.088C559.808 10.568 560.048 10.916 560.408 11.132C560.768 11.324 561.356 11.468 562.172 11.564L567.14 12.212C568.436 12.38 569.42 12.644 570.092 13.004C570.788 13.34 571.304 13.964 571.64 14.876C571.952 15.644 572.108 16.988 572.108 18.908C572.108 20.948 571.832 22.508 571.28 23.588C570.728 24.644 569.924 25.364 568.868 25.748C567.836 26.108 566.444 26.288 564.692 26.288ZM581.65 26V3.86H574.954V1.232H591.226V3.86H584.53V26H581.65ZM611.421 1.232V15.2C611.421 18.416 611.253 20.768 610.917 22.256C610.581 23.72 609.849 24.764 608.721 25.388C607.593 25.988 605.757 26.288 603.213 26.288C600.693 26.288 598.857 25.988 597.705 25.388C596.577 24.764 595.833 23.72 595.473 22.256C595.137 20.768 594.969 18.416 594.969 15.2V1.232H597.849V16.46C597.849 18.692 597.945 20.276 598.137 21.212C598.353 22.148 598.821 22.808 599.541 23.192C600.261 23.552 601.485 23.732 603.213 23.732C604.941 23.732 606.165 23.552 606.885 23.192C607.605 22.808 608.061 22.148 608.253 21.212C608.445 20.276 608.541 18.692 608.541 16.46V1.232H611.421ZM617.405 1.232H624.317C627.269 1.232 629.357 1.544 630.581 2.168C631.805 2.768 632.585 3.872 632.921 5.48C633.257 7.064 633.425 9.776 633.425 13.616C633.425 17.456 633.257 20.18 632.921 21.788C632.585 23.372 631.805 24.476 630.581 25.1C629.357 25.7 627.269 26 624.317 26H617.405V1.232ZM623.993 23.444C626.249 23.444 627.773 23.288 628.565 22.976C629.381 22.64 629.909 21.848 630.149 20.6C630.413 19.352 630.545 17.024 630.545 13.616C630.545 10.232 630.413 7.916 630.149 6.668C629.909 5.396 629.381 4.604 628.565 4.292C627.749 3.956 626.225 3.788 623.993 3.788H620.285V23.444H623.993ZM638.885 26V1.232H652.781V3.788H641.765V12.212H651.341V14.768H641.765V23.444H652.781V26H638.885ZM671.413 26L660.469 6.992H660.325V26H657.553V1.232H660.505L671.269 19.88H671.413V1.232H674.221V26H671.413ZM684.833 26V3.86H678.137V1.232H694.409V3.86H687.713V26H684.833ZM705.353 26.288C704.105 26.288 702.797 26.24 701.429 26.144C700.085 26.072 698.909 25.952 697.901 25.784V23.336C700.445 23.6 702.641 23.732 704.489 23.732C705.641 23.732 706.541 23.672 707.189 23.552C707.861 23.432 708.413 23.216 708.845 22.904C709.277 22.616 709.553 22.184 709.673 21.608C709.793 21.008 709.853 20.204 709.853 19.196C709.853 17.924 709.793 17.036 709.673 16.532C709.553 16.028 709.277 15.668 708.845 15.452C708.437 15.236 707.693 15.056 706.613 14.912L701.537 14.264C700.313 14.096 699.389 13.748 698.765 13.22C698.165 12.692 697.769 12.008 697.577 11.168C697.385 10.328 697.289 9.224 697.289 7.856C697.289 6.008 697.577 4.592 698.153 3.608C698.729 2.6 699.569 1.904 700.673 1.52C701.801 1.136 703.277 0.943999 705.101 0.943999C706.349 0.943999 707.561 1.004 708.737 1.124C709.937 1.22 710.921 1.352 711.689 1.52V3.896C709.913 3.632 707.933 3.5 705.749 3.5C704.525 3.5 703.553 3.572 702.833 3.716C702.113 3.86 701.561 4.088 701.177 4.4C700.769 4.712 700.493 5.132 700.349 5.66C700.229 6.164 700.169 6.872 700.169 7.784C700.169 8.84 700.229 9.608 700.349 10.088C700.469 10.568 700.709 10.916 701.069 11.132C701.429 11.324 702.017 11.468 702.833 11.564L707.801 12.212C709.097 12.38 710.081 12.644 710.753 13.004C711.449 13.34 711.965 13.964 712.301 14.876C712.613 15.644 712.769 16.988 712.769 18.908C712.769 20.948 712.493 22.508 711.941 23.588C711.389 24.644 710.585 25.364 709.529 25.748C708.497 26.108 707.105 26.288 705.353 26.288Z" fill="white"/>
</svg>
