<svg width="700" height="159" viewBox="0 0 700 159" fill="none" xmlns="http://www.w3.org/2000/svg">
<path d="M0 0V158.747L39.1608 133.943V81.8541H75.8741L105.245 54.5694H39.1608V29.7651H234.965V104.178H144.406V54.5694L107.692 91.7758V104.178L137.063 136.423H244.755L271.678 104.178V29.7651L244.755 0H0Z" fill="black"/>
<path d="M276.573 29.7651L305.944 0H494.406L516.434 29.7651H315.734V104.178H357.343V136.423H305.944L276.573 104.178V29.7651Z" fill="black"/>
<path d="M491.958 54.5694H401.399V133.943H673.077L700 94.2562L673.077 54.5694H572.727L562.937 42.1672L572.727 29.7651H673.077L700 0H550.699L521.329 42.1672L550.699 84.3345H648.601L655.944 94.2562L648.601 104.178H440.559V84.3345H511.539L491.958 54.5694Z" fill="black"/>
</svg>
