<svg width="317" height="31" viewBox="0 0 317 31" fill="none" xmlns="http://www.w3.org/2000/svg">
<path d="M0.486 30V0.599998H6.114L18.63 21.348H15.648L27.954 0.599998H33.54L33.624 30H27.24L27.198 10.386H28.374L18.546 26.892H15.48L5.442 10.386H6.87V30H0.486ZM36.7353 30L49.8393 0.599998H56.5593L69.7053 30H62.5653L51.8133 4.044H54.5013L43.7073 30H36.7353ZM43.2873 23.7L45.0933 18.534H60.2133L62.0613 23.7H43.2873ZM72.7555 30V0.599998H79.5595V30H72.7555ZM86.5368 30V0.599998H92.1648L109.511 21.768H106.781V0.599998H113.501V30H107.915L90.5268 8.832H93.2568V30H86.5368ZM138.609 12.444H152.763V17.736H138.609V12.444ZM139.113 24.54H155.115V30H132.351V0.599998H154.569V6.06H139.113V24.54ZM156.882 30L169.524 12.57V17.526L157.428 0.599998H165.156L173.514 12.402L170.28 12.444L178.512 0.599998H185.904L173.892 17.232V12.36L186.618 30H178.764L170.112 17.526H173.22L164.694 30H156.882ZM195.539 12.444H209.693V17.736H195.539V12.444ZM196.043 24.54H212.045V30H189.281V0.599998H211.499V6.06H196.043V24.54ZM231.529 30.504C229.261 30.504 227.147 30.14 225.187 29.412C223.255 28.656 221.575 27.592 220.147 26.22C218.719 24.848 217.599 23.238 216.787 21.39C216.003 19.542 215.611 17.512 215.611 15.3C215.611 13.088 216.003 11.058 216.787 9.21C217.599 7.362 218.719 5.752 220.147 4.38C221.603 3.008 223.297 1.958 225.229 1.23C227.161 0.473999 229.275 0.0959995 231.571 0.0959995C234.119 0.0959995 236.415 0.544 238.459 1.44C240.531 2.308 242.267 3.596 243.667 5.304L239.299 9.336C238.291 8.188 237.171 7.334 235.939 6.774C234.707 6.186 233.363 5.892 231.907 5.892C230.535 5.892 229.275 6.116 228.127 6.564C226.979 7.012 225.985 7.656 225.145 8.496C224.305 9.336 223.647 10.33 223.171 11.478C222.723 12.626 222.499 13.9 222.499 15.3C222.499 16.7 222.723 17.974 223.171 19.122C223.647 20.27 224.305 21.264 225.145 22.104C225.985 22.944 226.979 23.588 228.127 24.036C229.275 24.484 230.535 24.708 231.907 24.708C233.363 24.708 234.707 24.428 235.939 23.868C237.171 23.28 238.291 22.398 239.299 21.222L243.667 25.254C242.267 26.962 240.531 28.264 238.459 29.16C236.415 30.056 234.105 30.504 231.529 30.504ZM261.926 30.504C259.602 30.504 257.446 30.126 255.458 29.37C253.498 28.614 251.79 27.55 250.334 26.178C248.906 24.806 247.786 23.196 246.974 21.348C246.19 19.5 245.798 17.484 245.798 15.3C245.798 13.116 246.19 11.1 246.974 9.252C247.786 7.404 248.92 5.794 250.376 4.422C251.832 3.05 253.54 1.986 255.5 1.23C257.46 0.473999 259.588 0.0959995 261.884 0.0959995C264.208 0.0959995 266.336 0.473999 268.268 1.23C270.228 1.986 271.922 3.05 273.35 4.422C274.806 5.794 275.94 7.404 276.752 9.252C277.564 11.072 277.97 13.088 277.97 15.3C277.97 17.484 277.564 19.514 276.752 21.39C275.94 23.238 274.806 24.848 273.35 26.22C271.922 27.564 270.228 28.614 268.268 29.37C266.336 30.126 264.222 30.504 261.926 30.504ZM261.884 24.708C263.2 24.708 264.404 24.484 265.496 24.036C266.616 23.588 267.596 22.944 268.436 22.104C269.276 21.264 269.92 20.27 270.368 19.122C270.844 17.974 271.082 16.7 271.082 15.3C271.082 13.9 270.844 12.626 270.368 11.478C269.92 10.33 269.276 9.336 268.436 8.496C267.624 7.656 266.658 7.012 265.538 6.564C264.418 6.116 263.2 5.892 261.884 5.892C260.568 5.892 259.35 6.116 258.23 6.564C257.138 7.012 256.172 7.656 255.332 8.496C254.492 9.336 253.834 10.33 253.358 11.478C252.91 12.626 252.686 13.9 252.686 15.3C252.686 16.672 252.91 17.946 253.358 19.122C253.834 20.27 254.478 21.264 255.29 22.104C256.13 22.944 257.11 23.588 258.23 24.036C259.35 24.484 260.568 24.708 261.884 24.708ZM283.084 30V0.599998H288.712L301.228 21.348H298.246L310.552 0.599998H316.138L316.222 30H309.838L309.796 10.386H310.972L301.144 26.892H298.078L288.04 10.386H289.468V30H283.084Z" fill="black"/>
</svg>
