<svg width="750" height="52" viewBox="0 0 750 52" fill="none" xmlns="http://www.w3.org/2000/svg">
<path d="M0.767107 0.241784H13.2164L24.7277 27.8689L36.239 0.241784H48.6882V51.6589H38.797V18.1483L28.9058 39.1244H20.5495L10.6583 18.1483V51.6589H0.767107V0.241784ZM72.2131 20.9621H112.204V30.9386H72.2131V20.9621ZM72.2131 41.6825H112.204V51.6589H72.2131V41.6825ZM72.2131 0.241784H112.204V10.2182H72.2131V0.241784ZM135.748 20.9621H175.74V30.9386H135.748V20.9621ZM135.748 41.6825H175.74V51.6589H135.748V41.6825ZM135.748 0.241784H175.74V10.2182H135.748V0.241784ZM221.3 51.6589H211.323V10.2182H195.037V0.241784H211.323H221.3H237.586V10.2182H221.3V51.6589ZM316.478 51.6589H306.501V10.2182H290.215V0.241784H306.501H316.478H332.764V10.2182H316.478V51.6589ZM360.227 51.6589H350.336V30.9386V20.9621V0.241784H360.227V20.9621H383.762V0.241784H393.738V51.6589H383.762V30.9386H360.227V51.6589ZM417.286 20.9621H457.277V30.9386H417.286V20.9621ZM417.286 41.6825H457.277V51.6589H417.286V41.6825ZM417.286 0.241784H457.277V10.2182H417.286V0.241784ZM539.559 51.6589H529.583V10.2182H513.296V0.241784H529.583H539.559H555.846V10.2182H539.559V51.6589ZM573.418 20.9621H613.409V30.9386H573.418V20.9621ZM573.418 41.6825H613.409V51.6589H573.418V41.6825ZM573.418 0.241784H613.409V10.2182H573.418V0.241784ZM648.737 0.241784H666.046L682.077 51.6589H670.651L657.349 9.96244L644.047 51.6589H632.706L648.737 0.241784ZM701.404 0.241784H713.853L725.365 27.8689L736.876 0.241784H749.325V51.6589H739.434V18.1483L729.543 39.1244H721.187L711.295 18.1483V51.6589H701.404V0.241784Z" fill="black"/>
</svg>
