<svg width="510" height="46" viewBox="0 0 510 46" fill="none" xmlns="http://www.w3.org/2000/svg">
<g filter="url(#filter0_d_1929_224)">
<path d="M5.37989 0.352433H13.6794L21.3536 18.7705L29.0278 0.352433H37.3273V34.6305H30.7332V12.2901L24.139 26.2742H18.5681L11.974 12.2901V34.6305H5.37989V0.352433ZM53.0106 14.166H79.6713V20.817H53.0106V14.166ZM53.0106 27.9796H79.6713V34.6305H53.0106V27.9796ZM53.0106 0.352433H79.6713V7.00341H53.0106V0.352433ZM95.3674 14.166H122.028V20.817H95.3674V14.166ZM95.3674 27.9796H122.028V34.6305H95.3674V27.9796ZM95.3674 0.352433H122.028V7.00341H95.3674V0.352433ZM152.402 34.6305H145.751V7.00341H134.893V0.352433H145.751H152.402H163.259V7.00341H152.402V34.6305ZM215.854 34.6305H209.203V7.00341H198.345V0.352433H209.203H215.854H226.711V7.00341H215.854V34.6305ZM245.02 34.6305H238.426V20.817V14.166V0.352433H245.02V14.166H260.71V0.352433H267.361V34.6305H260.71V20.817H245.02V34.6305ZM283.059 14.166H309.72V20.817H283.059V14.166ZM283.059 27.9796H309.72V34.6305H283.059V27.9796ZM283.059 0.352433H309.72V7.00341H283.059V0.352433ZM364.575 34.6305H357.924V7.00341H347.066V0.352433H357.924H364.575H375.432V7.00341H364.575V34.6305ZM387.147 14.166H413.808V20.817H387.147V14.166ZM387.147 27.9796H413.808V34.6305H387.147V27.9796ZM387.147 0.352433H413.808V7.00341H387.147V0.352433ZM437.36 0.352433H448.899L459.586 34.6305H451.969L443.101 6.83287L434.233 34.6305H426.673L437.36 0.352433ZM472.471 0.352433H480.771L488.445 18.7705L496.119 0.352433H504.419V34.6305H497.825V12.2901L491.23 26.2742H485.66L479.065 12.2901V34.6305H472.471V0.352433Z" fill="white"/>
</g>
<defs>
<filter id="filter0_d_1929_224" x="0.0496011" y="0.352539" width="509.698" height="44.9367" filterUnits="userSpaceOnUse" color-interpolation-filters="sRGB">
<feFlood flood-opacity="0" result="BackgroundImageFix"/>
<feColorMatrix in="SourceAlpha" type="matrix" values="0 0 0 0 0 0 0 0 0 0 0 0 0 0 0 0 0 0 127 0" result="hardAlpha"/>
<feOffset dy="5.32931"/>
<feGaussianBlur stdDeviation="2.66465"/>
<feComposite in2="hardAlpha" operator="out"/>
<feColorMatrix type="matrix" values="0 0 0 0 0 0 0 0 0 0 0 0 0 0 0 0 0 0 0.65 0"/>
<feBlend mode="normal" in2="BackgroundImageFix" result="effect1_dropShadow_1929_224"/>
<feBlend mode="normal" in="SourceGraphic" in2="effect1_dropShadow_1929_224" result="shape"/>
</filter>
</defs>
</svg>
