<svg width="291" height="31" viewBox="0 0 291 31" fill="none" xmlns="http://www.w3.org/2000/svg">
<path d="M12.146 30.504C9.794 30.504 7.54 30.196 5.384 29.58C3.228 28.936 1.492 28.11 0.176 27.102L2.486 21.978C3.746 22.874 5.23 23.616 6.938 24.204C8.674 24.764 10.424 25.044 12.188 25.044C13.532 25.044 14.61 24.918 15.422 24.666C16.262 24.386 16.878 24.008 17.27 23.532C17.662 23.056 17.858 22.51 17.858 21.894C17.858 21.11 17.55 20.494 16.934 20.046C16.318 19.57 15.506 19.192 14.498 18.912C13.49 18.604 12.37 18.324 11.138 18.072C9.934 17.792 8.716 17.456 7.484 17.064C6.28 16.672 5.174 16.168 4.166 15.552C3.158 14.936 2.332 14.124 1.688 13.116C1.072 12.108 0.764 10.82 0.764 9.252C0.764 7.572 1.212 6.046 2.108 4.674C3.032 3.274 4.404 2.168 6.224 1.356C8.072 0.515999 10.382 0.0959995 13.154 0.0959995C15.002 0.0959995 16.822 0.319999 18.614 0.767998C20.406 1.188 21.988 1.832 23.36 2.7L21.26 7.866C19.888 7.082 18.516 6.508 17.144 6.144C15.772 5.752 14.428 5.556 13.112 5.556C11.796 5.556 10.718 5.71 9.878 6.018C9.038 6.326 8.436 6.732 8.072 7.236C7.708 7.712 7.526 8.272 7.526 8.916C7.526 9.672 7.834 10.288 8.45 10.764C9.066 11.212 9.878 11.576 10.886 11.856C11.894 12.136 13 12.416 14.204 12.696C15.436 12.976 16.654 13.298 17.858 13.662C19.09 14.026 20.21 14.516 21.218 15.132C22.226 15.748 23.038 16.56 23.654 17.568C24.298 18.576 24.62 19.85 24.62 21.39C24.62 23.042 24.158 24.554 23.234 25.926C22.31 27.298 20.924 28.404 19.076 29.244C17.256 30.084 14.946 30.504 12.146 30.504ZM42.3312 30.504C38.1592 30.504 34.8972 29.342 32.5452 27.018C30.1932 24.694 29.0172 21.376 29.0172 17.064V0.599998H35.8212V16.812C35.8212 19.612 36.3952 21.628 37.5432 22.86C38.6912 24.092 40.3012 24.708 42.3732 24.708C44.4452 24.708 46.0552 24.092 47.2032 22.86C48.3512 21.628 48.9252 19.612 48.9252 16.812V0.599998H55.6452V17.064C55.6452 21.376 54.4692 24.694 52.1172 27.018C49.7652 29.342 46.5032 30.504 42.3312 30.504ZM62.3688 30V0.599998H76.7328C80.4288 0.599998 83.2008 1.3 85.0488 2.7C86.9248 4.1 87.8628 5.948 87.8628 8.244C87.8628 9.784 87.4848 11.128 86.7288 12.276C85.9728 13.396 84.9368 14.264 83.6208 14.88C82.3048 15.496 80.7928 15.804 79.0848 15.804L79.8828 14.082C81.7308 14.082 83.3688 14.39 84.7968 15.006C86.2248 15.594 87.3308 16.476 88.1148 17.652C88.9268 18.828 89.3328 20.27 89.3328 21.978C89.3328 24.498 88.3388 26.472 86.3508 27.9C84.3628 29.3 81.4368 30 77.5728 30H62.3688ZM69.1308 24.876H77.0688C78.8328 24.876 80.1628 24.596 81.0588 24.036C81.9828 23.448 82.4448 22.524 82.4448 21.264C82.4448 20.032 81.9828 19.122 81.0588 18.534C80.1628 17.918 78.8328 17.61 77.0688 17.61H68.6268V12.654H75.8928C77.5448 12.654 78.8048 12.374 79.6728 11.814C80.5688 11.226 81.0168 10.344 81.0168 9.168C81.0168 8.02 80.5688 7.166 79.6728 6.606C78.8048 6.018 77.5448 5.724 75.8928 5.724H69.1308V24.876ZM112.637 12.444H126.791V17.736H112.637V12.444ZM113.141 24.54H129.143V30H106.379V0.599998H128.597V6.06H113.141V24.54ZM130.909 30L143.551 12.57V17.526L131.455 0.599998H139.183L147.541 12.402L144.307 12.444L152.539 0.599998H159.931L147.919 17.232V12.36L160.645 30H152.791L144.139 17.526H147.247L138.721 30H130.909ZM169.566 12.444H183.72V17.736H169.566V12.444ZM170.07 24.54H186.072V30H163.308V0.599998H185.526V6.06H170.07V24.54ZM205.556 30.504C203.288 30.504 201.174 30.14 199.214 29.412C197.282 28.656 195.602 27.592 194.174 26.22C192.746 24.848 191.626 23.238 190.814 21.39C190.03 19.542 189.638 17.512 189.638 15.3C189.638 13.088 190.03 11.058 190.814 9.21C191.626 7.362 192.746 5.752 194.174 4.38C195.63 3.008 197.324 1.958 199.256 1.23C201.188 0.473999 203.302 0.0959995 205.598 0.0959995C208.146 0.0959995 210.442 0.544 212.486 1.44C214.558 2.308 216.294 3.596 217.694 5.304L213.326 9.336C212.318 8.188 211.198 7.334 209.966 6.774C208.734 6.186 207.39 5.892 205.934 5.892C204.562 5.892 203.302 6.116 202.154 6.564C201.006 7.012 200.012 7.656 199.172 8.496C198.332 9.336 197.674 10.33 197.198 11.478C196.75 12.626 196.526 13.9 196.526 15.3C196.526 16.7 196.75 17.974 197.198 19.122C197.674 20.27 198.332 21.264 199.172 22.104C200.012 22.944 201.006 23.588 202.154 24.036C203.302 24.484 204.562 24.708 205.934 24.708C207.39 24.708 208.734 24.428 209.966 23.868C211.198 23.28 212.318 22.398 213.326 21.222L217.694 25.254C216.294 26.962 214.558 28.264 212.486 29.16C210.442 30.056 208.132 30.504 205.556 30.504ZM235.954 30.504C233.63 30.504 231.474 30.126 229.486 29.37C227.526 28.614 225.818 27.55 224.361 26.178C222.934 24.806 221.814 23.196 221.002 21.348C220.218 19.5 219.826 17.484 219.826 15.3C219.826 13.116 220.218 11.1 221.002 9.252C221.814 7.404 222.948 5.794 224.404 4.422C225.86 3.05 227.568 1.986 229.528 1.23C231.488 0.473999 233.616 0.0959995 235.912 0.0959995C238.236 0.0959995 240.363 0.473999 242.296 1.23C244.256 1.986 245.95 3.05 247.378 4.422C248.834 5.794 249.968 7.404 250.78 9.252C251.592 11.072 251.998 13.088 251.998 15.3C251.998 17.484 251.592 19.514 250.78 21.39C249.968 23.238 248.834 24.848 247.378 26.22C245.95 27.564 244.256 28.614 242.296 29.37C240.363 30.126 238.249 30.504 235.954 30.504ZM235.912 24.708C237.228 24.708 238.432 24.484 239.524 24.036C240.644 23.588 241.624 22.944 242.464 22.104C243.304 21.264 243.948 20.27 244.396 19.122C244.872 17.974 245.11 16.7 245.11 15.3C245.11 13.9 244.872 12.626 244.396 11.478C243.948 10.33 243.304 9.336 242.464 8.496C241.652 7.656 240.686 7.012 239.566 6.564C238.446 6.116 237.228 5.892 235.912 5.892C234.596 5.892 233.378 6.116 232.258 6.564C231.166 7.012 230.2 7.656 229.36 8.496C228.52 9.336 227.862 10.33 227.386 11.478C226.938 12.626 226.714 13.9 226.714 15.3C226.714 16.672 226.938 17.946 227.386 19.122C227.862 20.27 228.506 21.264 229.318 22.104C230.158 22.944 231.138 23.588 232.258 24.036C233.378 24.484 234.596 24.708 235.912 24.708ZM257.111 30V0.599998H262.739L275.255 21.348H272.273L284.579 0.599998H290.165L290.249 30H283.865L283.823 10.386H284.999L275.171 26.892H272.105L262.067 10.386H263.495V30H257.111Z" fill="white"/>
</svg>
