<svg width="375" height="41" viewBox="0 0 375 41" fill="none" xmlns="http://www.w3.org/2000/svg">
<path d="M0.844738 6.49452H8.40525L15.7952 28.8918L21.9914 6.49452H29.3245L26.937 15.0783L31.1436 28.9487L38.5336 6.49452H46.1509L35.4639 40.7726H27.1644L23.2989 27.9823L19.7744 40.7726H11.5318L0.844738 6.49452ZM59.023 20.3081H85.6837V26.9591H59.023V20.3081ZM59.023 34.1216H85.6837V40.7726H59.023V34.1216ZM59.023 6.49452H85.6837V13.1455H59.023V6.49452ZM102.801 1.03732C102.46 2.36372 102.024 3.80382 101.494 5.35761C100.963 6.91139 100.376 8.46518 99.7313 10.019C99.125 11.5349 98.5186 12.975 97.9123 14.3393H94.2173C94.4826 13.2781 94.7478 12.1412 95.0131 10.9285C95.3163 9.71579 95.5816 8.50308 95.809 7.29037C96.0742 6.03976 96.3016 4.82704 96.4911 3.65223C96.7185 2.47741 96.908 1.39734 97.0596 0.41201H102.403L102.801 1.03732ZM139.456 40.7726H132.122L125.301 26.9591H117.911V40.7726H111.317V22.0135V20.3081H127.916C127.916 20.3081 132.236 20.3649 132.236 16.7268C132.236 13.0887 127.916 13.1455 127.916 13.1455H111.317V6.49452H128.882C128.882 6.49452 138.887 6.72191 138.887 16.7268C138.887 22.8093 135.192 25.2537 132.293 26.2769L139.456 40.7726ZM154.062 20.3081H180.723V26.9591H154.062V20.3081ZM154.062 34.1216H180.723V40.7726H154.062V34.1216ZM154.062 6.49452H180.723V13.1455H154.062V6.49452ZM224.664 40.7726H218.069V26.9591V20.3081V6.49452H224.664V20.3081H240.353V6.49452H247.004V40.7726H240.353V26.9591H224.664V40.7726ZM262.702 20.3081H289.363V26.9591H262.702V20.3081ZM262.702 34.1216H289.363V40.7726H262.702V34.1216ZM262.702 6.49452H289.363V13.1455H262.702V6.49452ZM333.198 40.7726H325.865L319.043 26.9591H311.653V40.7726H305.059V22.0135V20.3081H321.658C321.658 20.3081 325.979 20.3649 325.979 16.7268C325.979 13.0887 321.658 13.1455 321.658 13.1455H305.059V6.49452H322.625C322.625 6.49452 332.63 6.72191 332.63 16.7268C332.63 22.8093 328.935 25.2537 326.035 26.2769L333.198 40.7726ZM347.805 20.3081H374.465V26.9591H347.805V20.3081ZM347.805 34.1216H374.465V40.7726H347.805V34.1216ZM347.805 6.49452H374.465V13.1455H347.805V6.49452Z" fill="white"/>
</svg>
